<?xml version="1.0" encoding="utf-8"?>
<!-- Generator: Adobe Illustrator 24.3.0, SVG Export Plug-In . SVG Version: 6.00 Build 0)  -->
<svg version="1.1" id="Layer_1" xmlns="http://www.w3.org/2000/svg" xmlns:xlink="http://www.w3.org/1999/xlink" x="0px" y="0px"
	 width="56px" height="56px" viewBox="0 0 56 56" style="enable-background:new 0 0 56 56;" xml:space="preserve">
<style type="text/css">
	.st0{fill:#FDF6B4;}
	.st1{fill:none;stroke:#333333;stroke-width:2;stroke-linejoin:round;}
	.st2{fill:url(#SVGID_1_);}
	.st3{fill:none;stroke:#333333;stroke-width:2;stroke-linecap:round;stroke-linejoin:round;stroke-miterlimit:10;}
</style>
<path class="st0" d="M56,23V3c0-1.7-1.3-3-3-3H33c-1.7,0-3,1.3-3,3v20c0,1.7,1.3,3,3,3h20C54.7,26,56,24.7,56,23z"/>
<path class="st1" d="M40.4,13.3c-1.9,0.6-4.4,2.4-4.4,2.4s-0.3-3.3,2.9-5.3c2.9-1.8,5.9-1.8,5.9-1.8V6l5.2,5.1L44.8,16v-2.7
	C44.8,13.3,42.4,12.7,40.4,13.3z"/>
<linearGradient id="SVGID_1_" gradientUnits="userSpaceOnUse" x1="54" y1="-6.1102" x2="36" y2="11.8898" gradientTransform="matrix(1 0 0 -1 0 55.8898)">
	<stop  offset="0" style="stop-color:#FDF6B4"/>
	<stop  offset="1" style="stop-color:#FDF6B4;stop-opacity:0"/>
</linearGradient>
<path class="st2" d="M16,34.8V27h33v27H16"/>
<path class="st3" d="M3.5,19.9l11.2,10.4L3.5,41.5L1,39.1"/>
<path class="st3" d="M15.9,50.7l0.2,0.2l0.7,0.7c0.7,0.7,0.8,1.9,0.2,2.6c-0.7,0.9-2,0.9-2.8,0.2l-3.4-3.4c-0.8-0.8-1.4-1.6-2-2.6
	c-0.8-1.3-1.3-2.7-1.6-4.2l-0.4-2l-2.1-2"/>
<path class="st3" d="M16.6,51.4l3.1,3.1c0.7,0.7,2,0.7,2.7,0c0.7-0.7,0.7-2,0-2.7l-0.1-0.1l-0.7-0.7l-0.4-0.4"/>
<path class="st3" d="M22.6,51.9l2.2,2.1l-0.1-0.1l0.3,0.3c0.8,0.7,2,0.7,2.7,0c0.4-0.4,0.6-1,0.5-1.5c0-0.4-0.2-0.9-0.6-1.2
	l-1.4-1.3"/>
<path class="st3" d="M13.4,31.6l2.3,2.3l1.8-0.5c1.9-0.6,3.9-0.3,5.6,0.8l7.9,5.2c0.3,0.2,0.5,0.6,0.4,0.9c0,0.2-0.1,0.3-0.2,0.5
	c-0.9,1.4-2.8,1.7-4.2,0.8L24.8,40c-0.2-0.1-0.4-0.2-0.6-0.2c-0.4,0-0.7,0.1-1,0.4c-0.4,0.5-0.4,1.2,0,1.7l9.6,9.5
	c0.8,0.8,0.8,2.1-0.2,2.9c-0.8,0.6-1.9,0.5-2.6-0.2l-2.2-2.2"/>
<path class="st3" d="M36.9,54H49V22H18v7"/>
<path class="st3" d="M37.7,22.6v7.8l-4.4-2.6l-4.4,2.6v-7.8"/>
</svg>
